<svg width="54" height="48" viewBox="0 0 54 48" fill="none" xmlns="http://www.w3.org/2000/svg">
<path d="M26.7 0.00976562V1.14977C26.36 11.2398 19.26 20.2898 9.36 22.6398C8.69 22.7998 6.81 23.2498 6.28 23.2498H0C3.79 17.0798 7.05 10.3298 10.88 4.22976C12.26 2.02976 12.7 0.609766 15.62 0.359766C18.57 0.109766 22.64 -0.000234146 26.69 0.0197659L26.7 0.00976562Z" fill="#4E30B2"/>
<path d="M53.4201 25.21L40.8401 46.97C40.6201 47.17 39.4601 47.85 39.2601 47.85H26.8301C26.8901 38.36 33.1101 29.4 42.1501 26.37C43.0901 26.05 45.8201 25.21 46.6501 25.21H53.4201Z" fill="#4E30B2"/>
<path d="M26.59 47.85H14.16C13.81 47.85 12.31 46.67 12.11 46.21L0 25.21H8.99001C10.91 25.21 14.55 27.74 15.75 29.28L26.59 47.85Z" fill="#4E30B2"/>
<path d="M53.4192 23.24H45.1692C44.6592 23.24 42.2292 22.38 41.6292 22.1C36.2192 19.6 31.0092 6.46 27.3692 1.17C27.1992 0.92 27.1292 0.53 26.7092 0.6C26.7092 0.78 26.7092 0.959999 26.6992 1.14V0C30.6692 0 34.6292 0.14 37.5492 0.34C38.7692 0.43 39.8192 0.63 40.7792 1.42L53.4192 23.23V23.24Z" fill="#DD3B87"/>
</svg>
